<svg id="svg" version="1.1" xmlns="http://www.w3.org/2000/svg" xmlns:xlink="http://www.w3.org/1999/xlink" width="400" height="337.28" viewBox="0, 0, 400,337.28"><g id="svgg"><path id="path0" d="M80.831 5.820 C 80.742 6.054,80.708 15.814,80.756 27.511 L 80.844 48.776 102.447 48.776 L 124.051 48.776 124.051 27.173 L 124.051 5.570 102.522 5.483 C 85.478 5.414,80.960 5.484,80.831 5.820 M128.160 53.218 C 127.836 53.543,127.887 95.608,128.212 96.121 C 128.425 96.456,132.954 96.527,149.726 96.458 L 170.970 96.371 170.970 74.768 L 170.970 53.165 149.679 53.078 C 137.969 53.030,128.285 53.093,128.160 53.218 M79.145 123.713 C 79.145 133.924,79.188 138.150,79.240 133.104 C 79.293 128.058,79.293 119.704,79.240 114.539 C 79.188 109.374,79.145 113.502,79.145 123.713 M79.145 168.945 C 79.145 179.156,79.188 183.382,79.240 178.336 C 79.293 173.290,79.293 164.936,79.240 159.771 C 79.188 154.606,79.145 158.734,79.145 168.945 M338.433 211.249 C 338.240 211.562,343.902 211.485,344.216 211.171 C 344.326 211.061,343.109 210.970,341.511 210.970 C 339.913 210.970,338.528 211.096,338.433 211.249 M251.646 318.312 C 251.399 318.711,251.729 318.711,252.658 318.312 C 253.309 318.033,253.307 318.021,252.594 317.998 C 252.187 317.985,251.760 318.127,251.646 318.312 " stroke="none" fill="#fa8408" fill-rule="evenodd"></path><path id="path1" d="M75.949 50.633 L 75.949 100.928 125.738 100.928 L 175.527 100.928 175.527 50.633 L 175.527 0.338 125.738 0.338 L 75.949 0.338 75.949 50.633 M124.219 27.137 C 124.219 46.646,124.165 48.894,123.685 49.078 C 122.988 49.346,81.907 49.346,81.209 49.078 C 80.652 48.864,80.348 6.178,80.900 5.626 C 81.024 5.502,90.821 5.401,102.672 5.401 L 124.219 5.401 124.219 27.137 M170.956 5.715 C 171.094 5.938,171.229 37.157,171.142 48.610 C 171.140 48.836,163.903 48.921,149.620 48.863 L 128.101 48.776 128.014 27.511 C 127.966 15.814,127.999 6.055,128.088 5.823 C 128.286 5.303,170.635 5.196,170.956 5.715 M124.137 74.684 L 124.051 96.709 103.122 96.802 C 91.612 96.853,81.852 96.812,81.435 96.711 L 80.675 96.527 80.675 74.818 C 80.675 62.878,80.776 53.007,80.900 52.883 C 81.024 52.759,90.822 52.658,102.675 52.658 L 124.224 52.658 124.137 74.684 M171.057 74.684 L 170.970 96.371 149.536 96.371 L 128.101 96.371 128.014 74.684 L 127.928 52.996 149.536 52.996 L 171.144 52.996 171.057 74.684 " stroke="none" fill="#f3f3f3" fill-rule="evenodd"></path><path id="path2" d="M128.088 5.823 C 127.999 6.055,127.966 15.814,128.014 27.511 L 128.101 48.776 149.620 48.863 C 163.903 48.921,171.140 48.836,171.142 48.610 C 171.229 37.157,171.094 5.938,170.956 5.715 C 170.635 5.196,128.286 5.303,128.088 5.823 " stroke="none" fill="#6cbc04" fill-rule="evenodd"></path><path id="path3" d="M91.923 49.198 C 97.831 49.250,107.401 49.250,113.189 49.198 C 118.977 49.146,114.143 49.104,102.447 49.104 C 90.751 49.104,86.015 49.146,91.923 49.198 M177.291 59.414 C 176.570 60.568,176.718 96.817,177.448 97.623 C 178.305 98.571,219.005 98.559,219.863 97.611 C 220.653 96.738,220.726 60.003,219.940 59.216 C 219.048 58.325,177.852 58.515,177.291 59.414 M79.669 104.292 C 79.293 104.994,79.138 142.209,79.508 142.808 C 79.625 142.997,88.240 143.122,101.117 143.122 L 122.532 143.122 122.532 123.580 C 122.532 106.072,122.476 104.017,121.998 103.834 C 120.330 103.193,80.023 103.630,79.669 104.292 M128.463 104.159 C 127.815 104.807,127.643 141.276,128.282 142.469 C 128.622 143.104,129.218 143.122,149.885 143.122 L 171.139 143.122 171.139 123.580 C 171.139 106.072,171.084 104.017,170.605 103.834 C 169.230 103.306,129.006 103.617,128.463 104.159 M177.447 104.234 C 176.753 105.001,176.565 141.832,177.251 142.659 C 177.875 143.411,219.928 143.342,220.217 142.588 C 220.815 141.030,220.425 104.749,219.805 104.187 C 218.815 103.292,178.260 103.336,177.447 104.234 M311.055 114.430 C 310.937 114.802,310.699 115.105,310.526 115.105 C 310.353 115.105,310.211 115.305,310.211 115.548 C 310.211 115.792,309.907 116.317,309.536 116.715 C 309.165 117.114,308.861 117.598,308.861 117.792 C 308.861 117.985,308.726 118.143,308.562 118.143 C 308.397 118.143,308.020 118.654,307.724 119.278 C 307.428 119.903,306.955 120.605,306.673 120.839 C 306.391 121.073,306.160 121.408,306.160 121.584 C 306.160 121.761,305.970 122.116,305.738 122.375 C 304.688 123.546,304.473 123.887,304.473 124.374 C 304.473 124.660,304.349 124.895,304.198 124.895 C 304.047 124.895,303.715 125.426,303.460 126.076 C 303.205 126.726,302.873 127.257,302.722 127.257 C 302.571 127.257,302.447 127.561,302.447 127.932 C 302.447 128.304,302.295 128.608,302.110 128.608 C 301.924 128.608,301.772 128.835,301.772 129.114 C 301.772 129.392,301.620 129.620,301.435 129.620 C 301.249 129.620,301.097 129.924,301.097 130.295 C 301.097 130.667,300.945 130.970,300.759 130.970 C 300.574 130.970,300.422 131.265,300.422 131.626 C 300.422 131.986,300.270 132.375,300.084 132.489 C 299.899 132.604,299.747 133.038,299.747 133.455 C 299.747 133.871,299.604 134.355,299.429 134.532 C 299.036 134.928,298.379 137.404,298.157 139.325 C 298.066 140.114,297.854 140.759,297.688 140.759 C 297.521 140.759,297.384 141.291,297.384 141.941 C 297.384 142.591,297.232 143.122,297.046 143.122 C 296.861 143.122,296.709 143.882,296.709 144.810 C 296.709 145.738,296.557 146.498,296.371 146.498 C 296.186 146.498,296.034 147.324,296.034 148.335 C 296.034 149.345,295.882 150.265,295.696 150.380 C 295.486 150.510,295.359 153.808,295.359 159.156 C 295.359 164.504,295.486 167.802,295.696 167.932 C 295.882 168.047,296.034 168.968,296.034 169.978 C 296.034 170.988,296.186 171.814,296.371 171.814 C 296.557 171.814,296.709 172.422,296.709 173.165 C 296.709 173.907,296.861 174.515,297.046 174.515 C 297.232 174.515,297.384 175.046,297.384 175.696 C 297.384 176.346,297.536 176.878,297.722 176.878 C 297.907 176.878,298.060 177.219,298.061 177.637 C 298.061 178.055,298.444 179.460,298.911 180.759 C 299.378 182.059,299.795 183.274,299.838 183.460 C 299.881 183.646,299.993 183.873,300.087 183.966 C 302.100 185.950,302.213 188.319,300.326 189.027 C 298.716 189.632,297.624 190.085,296.966 190.419 C 295.939 190.942,293.523 191.720,292.911 191.725 C 292.586 191.728,292.321 191.882,292.321 192.068 C 292.321 192.253,291.637 192.405,290.802 192.405 C 289.966 192.405,289.283 192.557,289.283 192.743 C 289.283 192.928,288.523 193.080,287.595 193.080 C 286.667 193.080,285.907 193.232,285.907 193.418 C 285.907 193.614,284.805 193.755,283.274 193.755 C 281.826 193.755,280.490 193.907,280.304 194.092 C 280.081 194.316,232.829 194.458,140.579 194.514 C 1.484 194.599,1.190 194.601,1.084 195.274 C 1.026 195.646,0.796 196.314,0.573 196.760 C 0.000 197.909,-0.006 229.738,0.566 230.734 C 0.785 231.115,1.011 232.368,1.068 233.519 C 1.125 234.670,1.274 235.612,1.398 235.612 C 1.523 235.612,1.708 236.409,1.810 237.384 C 2.171 240.843,2.441 242.200,2.869 242.700 C 3.107 242.979,3.382 243.814,3.480 244.557 C 3.578 245.300,3.835 246.591,4.051 247.426 C 4.267 248.262,4.523 249.516,4.620 250.213 C 4.717 250.910,4.933 251.565,5.099 251.668 C 5.265 251.770,5.401 252.301,5.401 252.847 C 5.401 253.393,5.553 253.840,5.738 253.840 C 5.924 253.840,6.076 254.295,6.076 254.852 C 6.076 255.409,6.228 255.865,6.414 255.865 C 6.599 255.865,6.751 256.321,6.751 256.878 C 6.751 257.435,6.903 257.890,7.089 257.890 C 7.274 257.890,7.426 258.270,7.426 258.734 C 7.426 259.198,7.578 259.578,7.764 259.578 C 7.949 259.578,8.101 260.025,8.101 260.571 C 8.101 261.117,8.253 261.657,8.439 261.772 C 8.624 261.887,8.776 262.343,8.776 262.785 C 8.776 263.227,8.911 263.672,9.076 263.774 C 9.240 263.876,9.479 264.511,9.605 265.186 C 9.732 265.860,9.961 266.659,10.114 266.961 C 10.268 267.263,10.902 268.574,11.524 269.873 C 12.146 271.173,12.770 272.287,12.910 272.349 C 13.050 272.411,13.165 272.743,13.165 273.088 C 13.165 273.433,13.316 273.809,13.502 273.924 C 13.688 274.039,13.840 274.428,13.840 274.788 C 13.840 275.148,13.992 275.443,14.177 275.443 C 14.363 275.443,14.515 275.671,14.515 275.949 C 14.515 276.228,14.667 276.456,14.852 276.456 C 15.038 276.456,15.190 276.684,15.190 276.962 C 15.190 277.241,15.342 277.468,15.527 277.468 C 15.713 277.468,15.876 277.734,15.890 278.059 C 15.903 278.384,16.202 279.105,16.553 279.662 C 16.904 280.219,17.508 281.328,17.895 282.126 C 18.281 282.925,18.804 283.657,19.057 283.754 C 19.310 283.851,19.700 284.375,19.926 284.919 C 20.151 285.462,20.469 285.907,20.632 285.907 C 20.795 285.907,20.928 286.141,20.928 286.428 C 20.928 286.714,21.078 287.132,21.261 287.356 C 22.194 288.497,23.966 291.001,23.966 291.178 C 23.966 291.289,24.308 291.792,24.726 292.296 C 25.143 292.800,25.865 293.728,26.329 294.357 C 28.689 297.556,34.368 303.797,34.919 303.797 C 35.012 303.797,36.839 305.544,38.980 307.679 C 41.121 309.814,42.960 311.561,43.067 311.561 C 43.230 311.561,46.042 313.722,46.582 314.262 C 47.142 314.821,50.972 317.300,51.277 317.300 C 51.480 317.300,51.646 317.451,51.646 317.637 C 51.646 317.823,51.873 317.975,52.152 317.975 C 52.430 317.975,52.658 318.127,52.658 318.312 C 52.658 318.498,52.886 318.650,53.165 318.650 C 53.443 318.650,53.671 318.802,53.671 318.987 C 53.671 319.173,53.886 319.325,54.149 319.325 C 54.412 319.325,54.678 319.465,54.740 319.636 C 54.884 320.035,67.917 326.823,70.226 327.701 C 70.868 327.946,71.656 328.287,71.979 328.461 C 72.301 328.634,72.795 328.776,73.076 328.776 C 73.357 328.776,73.586 328.928,73.586 329.114 C 73.586 329.300,73.881 329.451,74.242 329.451 C 74.602 329.451,74.991 329.603,75.105 329.789 C 75.220 329.975,75.752 330.127,76.287 330.127 C 76.822 330.127,77.354 330.278,77.468 330.464 C 77.583 330.650,77.972 330.802,78.332 330.802 C 78.693 330.802,78.987 330.954,78.987 331.139 C 78.987 331.325,79.434 331.477,79.980 331.477 C 80.526 331.477,81.067 331.629,81.181 331.814 C 81.296 332.000,81.828 332.152,82.363 332.152 C 82.898 332.152,83.430 332.304,83.544 332.489 C 83.659 332.675,84.115 332.827,84.557 332.827 C 84.999 332.827,85.455 332.979,85.570 333.165 C 85.684 333.350,86.292 333.502,86.920 333.502 C 87.548 333.502,88.150 333.645,88.258 333.820 C 88.366 333.995,89.518 334.243,90.817 334.371 C 92.116 334.499,93.261 334.735,93.361 334.897 C 93.460 335.058,94.217 335.190,95.041 335.190 C 95.866 335.190,96.540 335.342,96.540 335.527 C 96.540 335.713,97.376 335.865,98.397 335.865 C 99.418 335.865,100.253 336.017,100.253 336.203 C 100.253 336.388,101.076 336.540,102.082 336.540 C 103.244 336.540,103.961 336.694,104.051 336.962 C 104.162 337.296,110.826 337.384,135.865 337.384 C 160.904 337.384,167.568 337.296,167.679 336.962 C 167.776 336.672,168.650 336.540,170.472 336.540 C 171.931 336.540,173.219 336.388,173.333 336.203 C 173.448 336.017,174.444 335.865,175.547 335.865 C 176.659 335.865,177.553 335.715,177.553 335.527 C 177.553 335.337,178.509 335.190,179.747 335.190 C 180.954 335.190,181.941 335.064,181.941 334.910 C 181.941 334.757,183.422 334.463,185.232 334.258 C 187.042 334.052,189.359 333.715,190.380 333.507 C 191.401 333.300,192.806 333.046,193.502 332.943 C 194.198 332.840,194.768 332.620,194.768 332.454 C 194.768 332.288,195.367 332.152,196.098 332.152 C 196.830 332.152,197.522 332.000,197.637 331.814 C 197.752 331.629,198.359 331.477,198.987 331.477 C 199.615 331.477,200.223 331.325,200.338 331.139 C 200.452 330.954,200.984 330.802,201.519 330.802 C 202.054 330.802,202.586 330.650,202.700 330.464 C 202.815 330.278,203.423 330.127,204.051 330.127 C 204.679 330.127,205.286 329.975,205.401 329.789 C 205.516 329.603,206.056 329.451,206.602 329.451 C 207.148 329.451,207.595 329.300,207.595 329.114 C 207.595 328.928,208.118 328.776,208.756 328.776 C 209.395 328.776,210.001 328.642,210.103 328.478 C 210.204 328.313,210.707 328.100,211.219 328.004 C 213.816 327.515,222.226 324.544,222.388 324.059 C 222.452 323.869,222.871 323.713,223.319 323.713 C 223.768 323.713,224.135 323.561,224.135 323.376 C 224.135 323.190,224.441 323.038,224.815 323.038 C 225.189 323.038,225.758 322.900,226.081 322.730 C 226.403 322.561,227.426 322.167,228.354 321.854 C 229.283 321.542,230.686 320.996,231.473 320.643 C 232.260 320.289,233.053 320.000,233.235 320.000 C 233.417 320.000,234.107 319.696,234.768 319.325 C 235.429 318.954,236.193 318.650,236.466 318.650 C 236.739 318.650,236.962 318.498,236.962 318.312 C 236.962 318.127,237.266 317.975,237.637 317.975 C 238.008 317.975,238.312 317.823,238.312 317.637 C 238.312 317.451,238.586 317.300,238.920 317.300 C 239.674 317.300,241.344 316.545,241.348 316.203 C 241.349 316.063,241.596 315.949,241.897 315.949 C 242.198 315.949,243.754 315.245,245.357 314.385 C 246.959 313.525,248.611 312.651,249.027 312.444 C 249.443 312.237,249.785 311.954,249.786 311.814 C 249.788 311.675,250.084 311.561,250.444 311.561 C 250.805 311.561,251.193 311.409,251.308 311.224 C 251.423 311.038,251.756 310.886,252.048 310.886 C 252.340 310.886,252.825 310.620,253.125 310.295 C 253.425 309.970,254.506 309.266,255.527 308.730 C 256.549 308.194,257.630 307.472,257.930 307.127 C 258.230 306.781,258.724 306.498,259.027 306.498 C 259.330 306.498,259.578 306.346,259.578 306.160 C 259.578 305.975,259.777 305.823,260.021 305.823 C 260.264 305.823,260.790 305.519,261.188 305.148 C 261.587 304.776,261.992 304.473,262.089 304.473 C 262.186 304.473,263.066 303.974,264.044 303.365 C 265.022 302.756,266.241 302.047,266.751 301.789 C 267.262 301.531,267.679 301.194,267.679 301.040 C 267.679 300.886,267.869 300.759,268.101 300.759 C 268.333 300.759,268.965 300.379,269.504 299.915 C 270.043 299.451,270.575 299.069,270.685 299.066 C 270.796 299.063,271.366 298.646,271.952 298.138 C 272.539 297.630,273.819 296.608,274.797 295.865 C 275.775 295.122,276.899 294.211,277.295 293.840 C 277.691 293.468,278.537 292.764,279.176 292.275 C 279.815 291.785,280.667 291.102,281.070 290.756 C 281.472 290.410,282.232 289.827,282.757 289.462 C 283.283 289.096,284.517 287.994,285.500 287.014 C 286.482 286.034,287.395 285.232,287.529 285.232 C 288.100 285.232,299.072 274.045,299.072 273.462 C 299.072 273.252,299.203 273.080,299.364 273.080 C 299.818 273.080,303.987 268.759,304.511 267.745 C 304.768 267.247,305.435 266.373,305.992 265.802 C 306.549 265.230,307.384 264.256,307.848 263.637 C 309.379 261.595,310.531 260.100,311.474 258.931 C 311.986 258.297,312.937 257.083,313.586 256.234 C 314.236 255.385,315.113 254.309,315.534 253.843 C 315.956 253.377,316.486 252.578,316.714 252.068 C 316.941 251.557,317.242 251.139,317.382 251.139 C 317.522 251.139,317.637 250.911,317.637 250.633 C 317.637 250.354,317.763 250.127,317.918 250.127 C 318.072 250.127,318.413 249.709,318.677 249.198 C 318.940 248.688,319.232 248.194,319.325 248.101 C 319.719 247.711,321.688 244.317,321.688 244.028 C 321.688 243.855,321.813 243.713,321.966 243.713 C 322.119 243.713,322.682 242.764,323.216 241.603 C 323.751 240.443,324.461 239.199,324.794 238.839 C 325.128 238.479,325.401 238.055,325.401 237.897 C 325.401 237.739,325.673 237.317,326.006 236.959 C 326.549 236.376,327.675 234.334,330.937 228.017 C 331.513 226.903,332.097 225.941,332.236 225.879 C 332.376 225.817,332.489 225.475,332.489 225.120 C 332.489 224.764,332.641 224.473,332.827 224.473 C 333.013 224.473,333.165 224.169,333.165 223.797 C 333.165 223.426,333.316 223.122,333.502 223.122 C 333.688 223.122,333.840 222.819,333.840 222.447 C 333.840 222.076,333.954 221.772,334.093 221.771 C 334.232 221.770,334.623 221.049,334.961 220.168 C 335.299 219.286,335.717 218.302,335.889 217.979 C 336.061 217.657,336.203 217.087,336.203 216.713 C 336.203 216.340,336.354 216.034,336.540 216.034 C 336.726 216.034,336.878 215.730,336.878 215.359 C 336.878 214.987,337.030 214.684,337.215 214.684 C 337.401 214.684,337.553 214.304,337.553 213.840 C 337.553 213.376,337.705 212.996,337.890 212.996 C 338.076 212.996,338.228 212.625,338.228 212.172 C 338.228 210.981,338.130 210.996,346.110 210.957 C 350.353 210.937,353.418 210.791,353.418 210.609 C 353.418 210.436,354.160 210.295,355.067 210.295 C 355.974 210.295,357.151 210.068,357.683 209.791 C 358.215 209.514,359.210 209.286,359.896 209.285 C 360.581 209.284,361.235 209.131,361.350 208.945 C 361.465 208.759,362.148 208.608,362.869 208.608 C 363.590 208.608,364.273 208.456,364.388 208.270 C 364.503 208.084,364.968 207.932,365.421 207.932 C 365.874 207.932,366.245 207.781,366.245 207.595 C 366.245 207.409,366.700 207.257,367.257 207.257 C 367.814 207.257,368.270 207.105,368.270 206.920 C 368.270 206.734,368.641 206.582,369.094 206.582 C 369.547 206.582,370.012 206.430,370.127 206.245 C 370.241 206.059,370.630 205.907,370.990 205.907 C 371.351 205.907,371.646 205.755,371.646 205.570 C 371.646 205.384,371.873 205.232,372.152 205.232 C 372.430 205.232,372.658 205.080,372.658 204.895 C 372.658 204.709,373.029 204.557,373.482 204.557 C 373.935 204.557,374.388 204.424,374.488 204.262 C 374.589 204.100,375.534 203.558,376.589 203.059 C 378.607 202.103,381.525 200.229,381.716 199.766 C 381.778 199.616,381.975 199.494,382.154 199.494 C 382.672 199.494,387.514 194.453,390.635 190.665 C 391.147 190.044,391.944 189.080,392.407 188.523 C 392.869 187.966,393.248 187.333,393.249 187.117 C 393.249 186.900,393.384 186.672,393.549 186.610 C 393.904 186.477,395.336 184.080,396.338 181.941 C 396.730 181.105,397.182 180.158,397.343 179.836 C 397.505 179.513,397.637 179.020,397.637 178.739 C 397.637 178.458,397.789 178.228,397.975 178.228 C 398.160 178.228,398.312 178.000,398.312 177.722 C 398.312 177.443,398.464 177.215,398.650 177.215 C 398.835 177.215,398.987 176.924,398.987 176.568 C 398.987 176.212,399.160 175.864,399.371 175.793 C 400.444 175.436,400.101 168.776,399.009 168.776 C 398.657 168.776,398.318 168.643,398.256 168.481 C 398.106 168.087,393.400 165.063,392.937 165.063 C 392.737 165.063,392.574 164.911,392.574 164.726 C 392.574 164.540,392.283 164.388,391.927 164.388 C 391.571 164.388,391.229 164.274,391.167 164.135 C 390.980 163.714,388.167 162.363,387.479 162.363 C 387.125 162.363,386.835 162.244,386.835 162.099 C 386.835 161.954,386.114 161.634,385.232 161.388 C 379.234 159.715,378.867 159.642,375.344 159.428 C 373.482 159.314,371.880 159.093,371.782 158.936 C 371.524 158.517,351.730 158.568,351.730 158.987 C 351.730 159.177,350.793 159.325,349.594 159.325 L 347.458 159.325 347.062 157.611 C 346.845 156.669,346.667 155.604,346.667 155.244 C 346.667 154.884,346.533 154.326,346.371 154.004 C 345.967 153.204,345.316 151.100,345.316 150.593 C 345.316 150.365,345.013 149.550,344.641 148.781 C 344.270 148.013,343.963 147.222,343.959 147.025 C 343.955 146.828,343.654 146.287,343.291 145.823 C 342.928 145.359,342.628 144.721,342.624 144.406 C 342.619 144.090,342.236 143.422,341.772 142.922 C 341.308 142.421,340.928 141.730,340.928 141.385 C 340.928 141.041,340.786 140.759,340.613 140.759 C 340.439 140.759,340.105 140.228,339.870 139.578 C 339.635 138.928,339.321 138.397,339.173 138.397 C 339.024 138.397,338.903 138.169,338.903 137.890 C 338.903 137.612,338.751 137.384,338.565 137.384 C 338.380 137.384,338.228 137.156,338.228 136.878 C 338.228 136.599,338.076 136.371,337.890 136.371 C 337.705 136.371,337.553 136.134,337.553 135.845 C 337.553 135.556,337.401 135.413,337.215 135.527 C 337.030 135.642,336.878 135.492,336.878 135.194 C 336.878 134.897,336.498 134.273,336.034 133.809 C 335.570 133.345,335.190 132.832,335.190 132.670 C 335.190 132.289,327.944 125.003,326.405 123.836 C 325.760 123.347,324.528 122.284,323.667 121.474 C 321.383 119.323,319.889 118.157,319.409 118.150 C 319.177 118.146,318.987 118.017,318.987 117.863 C 318.987 117.709,318.570 117.367,318.059 117.103 C 317.549 116.840,316.930 116.435,316.685 116.203 C 316.439 115.970,316.045 115.781,315.809 115.781 C 315.572 115.781,315.104 115.477,314.768 115.105 C 314.432 114.734,313.953 114.430,313.703 114.430 C 313.453 114.430,313.249 114.278,313.249 114.093 C 313.249 113.419,311.280 113.722,311.055 114.430 M30.802 149.084 C 30.039 149.392,30.204 187.640,30.970 188.222 C 31.928 188.949,72.132 188.896,73.174 188.167 L 73.924 187.641 73.924 168.656 C 73.924 154.340,73.824 149.571,73.519 149.266 C 73.113 148.859,31.794 148.684,30.802 149.084 M79.695 149.327 C 79.045 150.111,79.004 187.330,79.653 188.101 C 80.317 188.890,120.908 189.006,121.941 188.222 C 122.806 187.566,122.861 149.397,121.998 149.066 C 120.760 148.591,80.098 148.842,79.695 149.327 M128.137 149.395 C 127.539 150.953,127.929 187.572,128.550 188.133 C 129.294 188.806,169.247 189.006,170.486 188.343 C 171.120 188.003,171.139 187.426,171.139 168.427 L 171.139 148.861 149.741 148.861 C 130.540 148.861,128.321 148.916,128.137 149.395 M177.321 149.280 C 176.744 150.171,176.801 187.006,177.381 187.891 L 177.906 188.692 198.404 188.684 C 217.350 188.678,218.961 188.633,219.665 188.090 L 220.428 187.503 220.340 168.266 L 220.253 149.030 198.924 148.943 C 182.088 148.874,177.538 148.945,177.321 149.280 M226.117 149.419 C 225.647 149.985,225.202 185.107,225.643 186.896 C 226.104 188.770,225.158 188.692,247.304 188.692 C 260.734 188.692,267.947 188.572,268.377 188.343 C 269.011 188.003,269.030 187.426,269.030 168.427 L 269.030 148.861 247.805 148.861 C 228.478 148.861,226.539 148.911,226.117 149.419 M251.890 318.453 C 250.234 318.897,248.119 320.564,248.109 321.435 C 248.105 321.759,247.949 322.025,247.764 322.025 C 247.278 322.025,247.345 326.104,247.848 327.187 C 248.080 327.687,248.384 328.097,248.523 328.099 C 248.662 328.100,248.778 328.367,248.779 328.692 C 248.782 329.263,250.141 330.127,251.038 330.127 C 251.279 330.127,251.477 330.278,251.477 330.464 C 251.477 330.650,252.303 330.802,253.313 330.802 C 254.324 330.802,255.244 330.650,255.359 330.464 C 255.473 330.278,255.804 330.127,256.093 330.127 C 256.782 330.127,258.903 327.799,258.903 327.043 C 258.903 326.718,259.055 326.359,259.241 326.245 C 259.655 325.989,259.694 322.700,259.283 322.700 C 259.120 322.700,258.899 322.257,258.790 321.714 C 258.682 321.172,258.169 320.333,257.651 319.850 C 256.841 319.096,256.159 318.803,253.734 318.170 C 253.514 318.113,252.684 318.240,251.890 318.453 " stroke="none" fill="#046cac" fill-rule="evenodd"></path><path id="path4" d="M80.900 52.883 C 80.776 53.007,80.675 62.878,80.675 74.818 L 80.675 96.527 81.435 96.711 C 81.852 96.812,91.612 96.853,103.122 96.802 L 124.051 96.709 124.137 74.684 L 124.224 52.658 102.675 52.658 C 90.822 52.658,81.024 52.759,80.900 52.883 " stroke="none" fill="#68c8f4" fill-rule="evenodd"></path></g></svg>